<?xml version="1.0" standalone="no"?>
<!DOCTYPE svg PUBLIC "-//W3C//DTD SVG 20010904//EN"
 "http://www.w3.org/TR/2001/REC-SVG-20010904/DTD/svg10.dtd">
<svg version="1.0" xmlns="http://www.w3.org/2000/svg"
 width="335.000000pt" height="335.000000pt" viewBox="0 0 335.000000 335.000000"
 preserveAspectRatio="xMidYMid meet">
<metadata>
Created by potrace 1.11, written by Peter Selinger 2001-2013
</metadata>
<g transform="translate(0.000000,335.000000) scale(0.100000,-0.100000)"
fill="#000000" stroke="none">
<path d="M0 1675 l0 -1175 337 2 338 3 0 1173 0 1172 -337 0 -338 0 0 -1175z"/>
<path d="M960 2653 c0 -109 0 -252 0 -318 0 -66 0 -165 0 -220 -1 -55 -1 -107
-1 -115 0 -16 0 -509 0 -525 -1 -8 0 -250 0 -350 0 -11 0 -112 0 -225 0 -113
0 -211 0 -217 0 -7 1 -51 2 -98 l1 -85 337 0 337 0 -1 1173 0 1172 -337 3
-338 2 0 -197z"/>
<path d="M1932 1676 l0 -1176 339 0 339 0 0 864 c0 929 0 920 -52 1056 -87
225 -316 399 -560 424 l-66 7 0 -1175z"/>
<path d="M3035 921 c-110 -51 -158 -186 -105 -296 54 -112 184 -156 298 -99
161 80 160 315 -1 393 -55 27 -137 27 -192 2z"/>
</g>
</svg>
