<?xml version="1.0" standalone="no"?>
<!DOCTYPE svg PUBLIC "-//W3C//DTD SVG 20010904//EN"
 "http://www.w3.org/TR/2001/REC-SVG-20010904/DTD/svg10.dtd">
<svg version="1.0" xmlns="http://www.w3.org/2000/svg"
 width="600.000000pt" height="600.000000pt" viewBox="0 0 600.000000 600.000000"
 preserveAspectRatio="xMidYMid meet">
<metadata>
Created by potrace 1.11, written by Peter Selinger 2001-2013
</metadata>
<g transform="translate(0.000000,600.000000) scale(0.100000,-0.100000)"
fill="#000000" stroke="none">
<path d="M2589 5995 c-3 -2 -27 -7 -54 -10 -57 -8 -273 -53 -284 -60 -4 -2
-21 -6 -37 -9 -44 -8 -227 -69 -334 -111 -154 -60 -505 -243 -530 -275 -3 -4
-16 -13 -29 -20 -14 -7 -30 -17 -35 -22 -6 -4 -33 -25 -61 -45 -68 -50 -62
-46 -135 -105 -110 -89 -246 -220 -352 -340 -51 -57 -69 -79 -113 -136 -5 -7
-17 -21 -25 -31 -22 -25 -135 -192 -171 -253 -60 -100 -72 -123 -128 -233 -30
-60 -57 -119 -58 -129 -2 -11 -10 -27 -18 -36 -8 -9 -15 -21 -15 -26 0 -6 -12
-39 -26 -75 -14 -35 -27 -68 -28 -74 -1 -5 -14 -48 -29 -95 -24 -79 -54 -191
-63 -233 -2 -10 -5 -26 -8 -35 -5 -16 -10 -44 -22 -117 -2 -16 -7 -43 -10 -58
-14 -70 -17 -132 -20 -427 -3 -270 0 -333 16 -445 71 -475 229 -885 492 -1271
38 -55 77 -109 87 -120 10 -11 20 -25 22 -30 5 -13 70 -92 117 -141 17 -19 32
-37 32 -39 0 -12 266 -263 325 -306 5 -5 28 -24 50 -43 22 -19 45 -35 52 -35
6 0 13 -4 15 -8 2 -4 25 -23 53 -42 27 -19 55 -40 62 -47 7 -6 22 -15 33 -18
11 -3 20 -11 20 -16 0 -5 4 -9 9 -9 5 0 46 -22 90 -50 45 -27 81 -47 81 -44 0
2 17 -6 38 -19 47 -29 130 -69 252 -120 14 -6 27 -11 30 -12 3 -1 19 -7 35
-14 33 -14 104 -40 120 -45 6 -1 37 -11 70 -21 33 -10 65 -20 70 -21 6 -1 46
-12 90 -23 44 -12 94 -24 110 -26 17 -3 50 -10 75 -15 52 -11 94 -17 165 -25
28 -4 64 -9 80 -11 17 -3 136 -7 265 -9 230 -2 390 9 547 39 11 3 36 7 54 10
19 3 45 8 59 11 14 3 36 8 50 11 32 7 270 75 300 87 8 3 49 18 90 33 41 15 95
36 120 47 25 11 46 20 47 19 6 -3 302 156 323 173 8 6 22 15 30 19 27 11 218
141 230 155 3 3 22 19 43 34 20 16 48 38 61 50 13 12 46 41 73 63 111 95 248
240 359 379 67 85 224 309 224 320 0 3 11 23 25 45 40 64 150 289 188 385 39
101 104 291 111 327 2 12 11 50 20 83 8 33 17 71 20 85 2 14 7 32 10 40 3 8 8
33 10 55 3 22 8 56 11 75 3 19 8 49 11 65 25 164 26 616 0 765 -2 14 -7 48
-11 75 -15 111 -75 381 -91 407 -3 4 -7 17 -10 28 -10 47 -13 58 -34 115 -24
67 -29 80 -59 147 -12 26 -21 50 -21 53 0 7 -110 229 -137 276 -41 72 -48 83
-56 93 -4 6 -30 47 -58 91 -29 44 -61 92 -73 106 -11 14 -28 36 -36 49 -8 12
-20 28 -25 34 -6 6 -30 36 -55 66 -92 113 -274 300 -292 300 -5 0 -6 5 -3 10
3 6 -1 10 -9 10 -9 0 -16 4 -16 8 0 8 -123 109 -230 189 -55 41 -187 128 -225
149 -39 21 -70 39 -75 44 -7 7 -182 95 -189 95 -3 1 -16 6 -29 13 -27 16 -241
102 -262 107 -8 2 -35 10 -60 18 -64 22 -180 55 -210 61 -14 2 -32 7 -40 10
-8 3 -31 8 -50 11 -19 3 -80 14 -135 24 -87 17 -152 19 -496 20 -218 0 -398
-1 -400 -4z"/>
</g>
</svg>
