<svg width="75" height="75" viewBox="0 0 75 75" fill="none" xmlns="http://www.w3.org/2000/svg">
<circle cx="37.1907" cy="37.1907" r="37.1907" fill="#E26E4B"/>
<path d="M23.3746 19.6797C20.7035 19.6797 18.957 21.3836 18.957 23.6231C18.957 25.8132 20.6514 27.5657 23.2721 27.5657H23.3228C26.0462 27.5657 27.7411 25.8132 27.7411 23.6231C27.6901 21.3836 26.0462 19.6797 23.3746 19.6797Z" fill="white"/>
<path d="M19.418 30.6816H27.2268V53.5037H19.418V30.6816Z" fill="white"/>
<path d="M46.3933 30.1455C42.1807 30.1455 39.356 33.9909 39.356 33.9909V30.6811H31.5469V53.5032H39.3555V40.7585C39.3555 40.0762 39.4064 39.395 39.6128 38.9071C40.1773 37.5447 41.4619 36.1332 43.6193 36.1332C46.4449 36.1332 47.575 38.2261 47.575 41.2941V53.5032H55.3833V40.4174C55.3833 33.4075 51.5306 30.1455 46.3933 30.1455Z" fill="white"/>
</svg>
